<svg width="512" height="512" viewBox="0 0 512 512" fill="none" xmlns="http://www.w3.org/2000/svg">
<circle cx="256" cy="256" r="255.004" fill="white" stroke="white" stroke-width="1.2373"/>
<path d="M256.319 47.6229V47.8305C256.527 48.8686 256.527 50.1144 256.527 51.3601V201.057C256.319 201.888 255.696 202.095 255.074 202.511C250.713 204.587 246.561 206.455 242.201 208.324C236.18 211.023 229.951 213.93 223.93 216.629L202.129 226.595C196.108 229.294 190.087 231.993 184.274 234.692C177.214 238.014 169.948 241.129 162.888 244.451C156.867 247.15 150.846 250.057 144.617 252.756C139.634 255.04 134.651 257.116 129.876 259.4C129.461 259.607 129.046 259.815 128.63 259.815C128.423 259.815 128.423 259.815 128.215 259.607L133.821 250.264C144.617 232.408 155.206 214.76 166.003 196.905C177.422 177.803 189.049 158.702 200.468 139.6C211.057 121.952 221.854 104.304 232.443 86.6562C240.125 73.7835 248.014 60.9108 255.696 48.0381C255.904 47.6229 256.112 47.4152 256.112 47H256.319C256.112 47.2076 256.319 47.4152 256.319 47.6229Z" fill="#8A92B2"/>
<path d="M383.792 259.608L384 259.815L353.479 277.879L257.557 334.56C257.142 334.768 256.726 334.975 256.519 335.183C255.896 335.183 255.896 334.56 255.896 334.352V332.484V204.172C255.896 203.549 255.896 202.719 256.103 202.096C256.311 201.265 256.934 201.473 257.557 201.681C260.256 202.926 263.163 204.172 265.862 205.418C273.959 209.155 282.056 212.892 290.154 216.422C297.213 219.536 304.065 222.858 311.124 225.973C318.183 229.087 325.242 232.409 332.302 235.523C338.323 238.222 344.551 241.129 350.573 243.828C356.594 246.527 362.822 249.434 368.843 252.133C373.619 254.209 378.394 256.493 383.17 258.57C383.17 259.192 383.377 259.4 383.792 259.608Z" fill="#454A75"/>
<path d="M256.311 464.117C256.311 464.325 256.103 464.533 256.103 464.74H255.896C255.896 464.325 255.48 464.118 255.273 463.702C242.4 445.639 229.527 427.368 216.655 409.305C203.574 390.826 190.286 372.14 177.206 353.661C164.541 335.806 151.668 317.742 139.003 299.887C135.681 295.111 132.359 290.544 129.037 285.768C128.829 285.353 128.622 285.145 128.207 284.522C128.829 284.522 129.245 284.938 129.452 285.145C147.516 295.734 165.371 306.323 183.435 316.912C204.197 329.162 224.752 341.412 245.514 353.661L256.103 359.89C256.518 360.305 256.518 360.721 256.518 361.136V461.211C256.518 462.249 256.518 463.287 256.311 464.117Z" fill="#8A92B2"/>
<path d="M128 260.023V259.816C134.644 256.909 141.08 253.794 147.724 250.888C156.237 246.943 164.749 243.206 173.262 239.261C179.698 236.354 186.342 233.24 192.779 230.333C202.329 225.973 211.673 221.82 221.223 217.46C227.66 214.553 234.096 211.647 240.74 208.532C245.308 206.456 250.083 204.38 254.651 202.304C255.066 202.096 255.689 201.888 255.897 201.473C256.104 201.473 256.104 201.681 255.897 201.888V333.73C255.897 334.353 255.689 334.976 256.104 335.391C255.689 336.014 255.274 335.391 255.066 335.183C253.197 334.145 251.329 333.107 249.46 331.861C209.389 308.192 169.11 284.315 129.038 260.646C128.83 260.438 128.415 260.231 128 260.023Z" fill="#62688F"/>
<path d="M383.377 284.522H383.584C383.584 284.938 383.169 285.353 382.962 285.768C344.759 339.543 306.556 393.525 268.353 447.3C264.408 452.906 260.256 458.512 256.311 464.117C256.103 463.91 256.103 463.702 256.103 463.495V462.249V361.551V359.682C264.823 354.492 273.336 349.509 282.056 344.318C315.691 324.386 349.326 304.662 382.754 284.73C382.962 284.938 383.169 284.73 383.377 284.522Z" fill="#62688F"/>
<path d="M256.104 201.888V201.473V200.227V49.4922C256.104 48.8693 255.897 48.4541 256.312 47.8312C298.46 117.801 340.607 187.562 382.548 257.532C382.963 258.155 383.586 258.985 383.793 259.816C380.887 258.777 378.188 257.324 375.488 256.078C372.166 254.625 368.637 252.964 365.315 251.511C363.239 250.472 360.955 249.642 358.878 248.604C355.349 246.943 351.819 245.489 348.29 243.828C346.213 242.998 344.137 241.96 342.061 240.922L328.358 234.693C326.074 233.655 323.79 232.617 321.298 231.579L311.332 227.219C309.256 226.388 307.18 225.35 305.104 224.312L291.401 218.083C289.117 217.045 286.833 216.007 284.341 214.969L274.375 210.609C272.091 209.57 270.015 208.532 267.731 207.494C263.786 205.626 259.842 203.757 255.689 202.096C256.312 201.888 256.104 201.888 256.104 201.888Z" fill="#62688F"/>
</svg>
