<svg width="512" height="512" viewBox="0 0 512 512" fill="none" xmlns="http://www.w3.org/2000/svg">
<g clip-path="url(#clip0_98_1322)">
<mask id="mask0_98_1322" style="mask-type:alpha" maskUnits="userSpaceOnUse" x="0" y="0" width="513" height="513">
<path d="M0.000488281 0.00130844H512V512H0.000488281V0.00130844Z" fill="white"/>
</mask>
<g mask="url(#mask0_98_1322)">
<path fill-rule="evenodd" clip-rule="evenodd" d="M256 0.00130844C397.388 0.00130844 512 114.614 512 256.001C512 397.377 397.388 512.001 256 512.001C114.613 512.001 0.000488281 397.377 0.000488281 256.001C0.000488281 114.614 114.613 0.00130844 256 0.00130844Z" fill="#2775CA"/>
</g>
<path fill-rule="evenodd" clip-rule="evenodd" d="M208.012 433.989C208.012 440.011 203.296 443.432 197.472 441.614C120.07 416.922 63.9507 344.343 63.9507 258.705C63.9507 173.07 120.07 100.488 197.472 75.796C203.296 73.9894 208.012 77.3989 208.012 83.4207V98.2862C208.012 102.295 204.905 107.013 201.085 108.32C139.846 130.807 95.9769 189.637 95.9769 258.603C95.9769 327.569 139.846 386.411 201.085 408.887C204.905 410.295 208.012 414.909 208.012 418.932V433.989Z" fill="white"/>
<path fill-rule="evenodd" clip-rule="evenodd" d="M271.961 378.671C271.961 383.093 268.348 386.706 263.932 386.706H247.967C243.551 386.706 239.938 383.093 239.938 378.671V353.377C204.999 348.661 187.938 329.08 183.318 302.479C182.512 297.956 186.125 293.842 190.745 293.842H209.017C212.831 293.842 216.045 296.556 216.848 300.364C220.263 316.228 229.398 328.376 257.404 328.376C278.084 328.376 292.746 316.83 292.746 299.57C292.746 282.296 284.109 275.774 253.791 270.75C209.017 264.728 187.836 251.172 187.836 216.036C187.836 188.932 208.319 167.852 240.039 163.332V138.535C240.039 134.116 243.655 130.5 248.068 130.5H264.034C268.45 130.5 272.063 134.116 272.063 138.535V164.036C297.863 168.661 314.227 183.308 319.551 207.602C320.551 212.228 316.938 216.536 312.223 216.536H295.353C291.74 216.536 288.729 214.124 287.626 210.613C283.108 195.16 272.063 188.536 252.886 188.536C231.705 188.536 220.761 198.773 220.761 213.127C220.761 228.286 226.989 235.911 259.519 240.638C303.484 246.66 326.178 259.207 326.178 296.661C326.178 325.068 305.092 348.059 272.063 353.377V378.671H271.961Z" fill="white"/>
<path fill-rule="evenodd" clip-rule="evenodd" d="M314.529 441.615C308.711 443.433 303.989 440.012 303.989 433.99V419.136C303.989 414.717 306.701 410.604 310.916 409.091C372.155 386.604 416.024 327.773 416.024 258.807C416.024 189.841 372.155 131.011 310.916 108.524C307.102 107.116 303.989 102.502 303.989 98.4785V83.6247C303.989 77.6029 308.711 74.0916 314.529 75.9883C391.931 100.695 448.05 173.274 448.05 258.909C447.954 344.34 391.931 416.82 314.529 441.615Z" fill="white"/>
</g>
<defs>
<clipPath id="clip0_98_1322">
<rect width="512" height="512" fill="white"/>
</clipPath>
</defs>
</svg>
