<svg width="512" height="512" viewBox="0 0 512 512" fill="none" xmlns="http://www.w3.org/2000/svg">
<path d="M512 256C512 114.615 397.385 0 256 0C114.615 0 0 114.615 0 256C0 397.385 114.615 512 256 512C397.385 512 512 397.385 512 256Z" fill="black"/>
<path fill-rule="evenodd" clip-rule="evenodd" d="M256 21C385.787 21 491 126.213 491 256C491 385.787 385.787 491 256 491C126.213 491 21 385.787 21 256C21 126.213 126.213 21 256 21ZM256.5 31C380.488 31 481 131.512 481 255.5C481 379.488 380.488 480 256.5 480C132.512 480 32 379.488 32 255.5C32 131.512 132.512 31 256.5 31Z" fill="url(#paint0_linear_107_37)"/>
<path d="M368.016 278.162C368.875 279.98 368.964 281.848 368.269 283.767L341.12 358.28C340.438 360.161 339.174 361.525 337.341 362.383C335.496 363.242 333.638 363.33 331.767 362.648C329.846 361.954 328.456 360.679 327.596 358.848C326.737 357.005 326.649 355.149 327.331 353.281L354.479 278.768C355.175 276.849 356.451 275.473 358.271 274.64C360.104 273.806 361.974 273.731 363.895 274.438C365.779 275.094 367.144 276.344 368.016 278.162ZM332.134 300.23C332.804 298.4 332.74 296.544 331.932 294.675L315.286 259.01L315.248 258.921C315.147 258.694 315.033 258.492 314.907 258.315L314.869 258.227L314.806 258.202C314.73 258.038 314.642 257.886 314.553 257.76C314.528 257.709 314.477 257.646 314.414 257.571C314.313 257.444 314.224 257.318 314.136 257.192C314.073 257.116 313.997 257.053 313.934 256.977C313.833 256.889 313.719 256.788 313.63 256.662C313.542 256.636 313.479 256.586 313.416 256.51C313.302 256.422 313.175 256.333 313.024 256.232C312.998 256.182 312.961 256.144 312.923 256.131L312.859 256.106C312.708 256.005 312.556 255.904 312.417 255.803L312.354 255.778C312.316 255.765 312.303 255.727 312.316 255.689C312.152 255.626 311.975 255.538 311.785 255.424L311.722 255.399C311.52 255.323 311.317 255.248 311.103 255.172C309.131 254.503 307.248 254.578 305.466 255.412C303.684 256.245 302.445 257.621 301.737 259.54L274.589 334.053C273.906 335.934 273.995 337.79 274.854 339.62C275.714 341.464 277.079 342.714 278.962 343.395C280.883 344.09 282.753 344.014 284.573 343.143C286.393 342.272 287.645 340.908 288.327 339.027L309.434 281.104L318.661 300.748C319.558 302.604 320.923 303.866 322.768 304.536C324.614 305.205 326.472 305.116 328.355 304.27C330.2 303.437 331.464 302.074 332.134 300.23ZM268.686 406.987L244.179 407C244.154 407 244.116 407 244.091 407C184.258 407 112.81 374.074 108.222 281.217C104.481 205.694 149.172 112.787 151.068 108.873C152.294 106.336 154.86 104.72 157.678 104.707L265.299 104L355.465 104.581C358.284 104.593 360.862 106.222 362.088 108.76C363.984 112.673 408.574 205.543 404.77 281.066C400.081 373.948 328.532 406.95 268.686 406.987ZM389.97 280.321C390.121 277.316 390.159 274.273 390.159 271.193C390.008 271.054 389.843 270.953 389.704 270.802C389.464 270.562 363.807 244.706 320.076 244.706C300.979 244.706 287.885 252.457 272.718 261.434C265.704 265.587 258.449 269.88 250.17 273.655C249.488 273.97 248.78 274.122 248.072 274.223L251.586 283.881C252.281 285.8 252.205 287.681 251.346 289.512C250.486 291.355 249.121 292.605 247.238 293.287C245.317 293.981 243.434 293.905 241.601 293.047C239.756 292.188 238.492 290.8 237.797 288.881L226.738 258.517L217.233 261.977C215.312 262.671 213.429 262.595 211.596 261.737C209.764 260.878 208.487 259.49 207.792 257.571C207.097 255.652 207.173 253.77 208.032 251.94C208.891 250.097 210.282 248.834 212.203 248.14L228.57 242.193C230.491 241.499 232.375 241.575 234.207 242.433C236.053 243.292 237.316 244.68 238.024 246.599C238.05 246.675 238.075 246.738 238.087 246.789L238.113 246.852L238.138 246.915C238.151 246.953 238.176 247.016 238.201 247.104L243.156 260.714C243.446 260.537 243.724 260.348 244.04 260.197C251.598 256.75 258.499 252.672 265.185 248.708C280.794 239.466 296.947 229.909 320.102 229.909C352.748 229.909 376.269 242.269 389.148 251.296C383.625 195.026 357.993 135.373 350.713 119.352L265.299 118.797L247.908 118.809L162.532 119.466C155.707 134.464 132.704 187.868 125.234 240.855C128.103 243.304 136.23 249.806 147.984 256.005C148.06 255.513 148.123 255.033 148.212 254.541C149.741 246.473 153.116 239.252 158.323 232.863C163.543 226.488 170.191 221.817 178.293 218.875C183.159 217.107 188.075 216.173 193.068 216.072C198.047 215.971 202.875 216.615 207.552 218.016C210.155 218.686 211.9 220.226 212.772 222.637C213.467 224.556 213.378 226.437 212.506 228.281C211.622 230.124 210.244 231.386 208.373 232.068C206.654 232.687 204.973 232.699 203.318 232.106C196.657 230.086 189.996 230.288 183.336 232.712C177.774 234.732 173.212 237.913 169.635 242.269C166.058 246.625 163.758 251.561 162.709 257.091C161.672 262.621 162.165 268.163 164.188 273.718C166.197 279.235 169.382 283.767 173.73 287.34C178.09 290.913 183.032 293.224 188.581 294.284C194.129 295.345 199.678 294.865 205.239 292.845L205.289 292.971C207.236 292.352 209.094 292.453 210.851 293.274C212.607 294.095 213.821 295.446 214.503 297.314C215.186 299.195 215.122 301.013 214.314 302.793C213.505 304.573 212.152 305.849 210.256 306.631C202.168 309.573 194.066 310.293 185.977 308.765C177.888 307.25 170.646 303.892 164.289 298.69C157.931 293.489 153.28 286.848 150.335 278.768C149.615 276.773 149.021 274.778 148.566 272.784C137.936 267.936 129.355 262.482 123.389 258.189C122.858 265.752 122.707 273.225 123.06 280.485C123.983 299.145 134.157 392.178 244.104 392.178C244.142 392.178 244.179 392.178 244.217 392.178L268.724 392.166C378.746 392.115 389.022 298.993 389.97 280.321ZM260.534 302.149C258.525 302.339 256.882 303.197 255.592 304.725L204.569 365.464C203.255 367.029 202.673 368.809 202.837 370.817C202.989 372.824 203.861 374.478 205.428 375.791C206.996 377.104 208.778 377.66 210.787 377.47C212.797 377.281 214.453 376.41 215.767 374.844L266.79 314.105C268.08 312.578 268.636 310.81 268.484 308.803C268.32 306.795 267.46 305.142 265.893 303.829C264.326 302.516 262.544 301.96 260.534 302.149Z" fill="url(#paint1_linear_107_37)"/>
<defs>
<linearGradient id="paint0_linear_107_37" x1="255.997" y1="21" x2="255.997" y2="491" gradientUnits="userSpaceOnUse">
<stop stop-color="#DA9E5F"/>
<stop offset="0.3" stop-color="#FBEAB2"/>
<stop offset="0.7" stop-color="#EAAE67"/>
<stop offset="1" stop-color="#D1945A"/>
</linearGradient>
<linearGradient id="paint1_linear_107_37" x1="256.498" y1="104" x2="256.498" y2="407" gradientUnits="userSpaceOnUse">
<stop stop-color="#DA9E5F"/>
<stop offset="0.3" stop-color="#FBEAB2"/>
<stop offset="0.7" stop-color="#EAAE67"/>
<stop offset="1" stop-color="#D1945A"/>
</linearGradient>
</defs>
</svg>
