<svg width="512" height="512" viewBox="0 0 512 512" fill="none" xmlns="http://www.w3.org/2000/svg">
<path d="M512 256C512 114.615 397.385 0 256 0C114.615 0 0 114.615 0 256C0 397.385 114.615 512 256 512C397.385 512 512 397.385 512 256Z" fill="black"/>
<path fill-rule="evenodd" clip-rule="evenodd" d="M176.442 418.817C175.893 418.817 175.349 418.708 174.842 418.498C172.716 417.615 171.708 415.175 172.59 413.048C189.277 372.87 197.676 339.344 197.786 312.47C197.96 270.243 159.731 228.54 152.433 191.527C147.696 167.504 149.876 135.74 158.975 96.2344C159.411 94.3411 161.096 92.9997 163.039 93H348.961C350.904 92.9997 352.589 94.3411 353.025 96.2344C362.124 135.74 364.304 167.504 359.567 191.527C352.269 228.541 314.04 270.244 314.214 312.47C314.324 339.344 322.723 372.87 339.41 413.048C340.292 415.175 339.284 417.615 337.158 418.498C336.651 418.708 336.107 418.817 335.558 418.817H176.442Z" stroke="#34D76C" stroke-width="16"/>
<path fill-rule="evenodd" clip-rule="evenodd" d="M335.751 134.181C341.671 165.178 338.711 191.459 326.871 213.022C309.112 245.367 292.894 278.245 293.017 312.567C293.097 334.675 299.19 362.32 311.299 395.504C311.795 396.857 311.098 398.354 309.745 398.848C309.458 398.952 309.156 399.006 308.851 399.006H203.319C203.014 399.006 202.711 398.952 202.425 398.848C201.072 398.354 200.375 396.857 200.87 395.504C212.978 362.32 219.073 334.675 219.152 312.567C219.275 278.245 203.058 245.367 185.298 213.022C173.996 192.439 170.786 167.558 175.666 138.378L176.418 134.181H335.749L335.751 134.181ZM242.269 341.139C237.375 341.139 233.407 345.107 233.407 350.001C233.407 354.896 237.375 358.864 242.269 358.864C247.164 358.864 251.131 354.896 251.131 350.001C251.131 345.107 247.164 341.139 242.269 341.139ZM269.898 296.828C265.004 296.828 261.036 300.796 261.036 305.69C261.036 310.585 265.004 314.553 269.898 314.553C274.793 314.553 278.761 310.585 278.761 305.69C278.761 300.796 274.793 296.828 269.898 296.828ZM247.482 249.389C242.588 249.389 238.62 253.357 238.62 258.251C238.62 263.146 242.588 267.113 247.482 267.113C252.377 267.113 256.344 263.146 256.344 258.251C256.344 253.357 252.377 249.389 247.482 249.389V249.389ZM291.272 201.428C286.377 201.428 282.409 205.396 282.409 210.29C282.409 215.185 286.377 219.153 291.272 219.153C296.166 219.153 300.134 215.185 300.134 210.29C300.134 205.396 296.166 201.428 291.272 201.428ZM233.406 184.225C228.512 184.225 224.544 188.193 224.544 193.087C224.544 197.982 228.512 201.949 233.406 201.949C238.301 201.949 242.269 197.982 242.269 193.087C242.269 188.193 238.301 184.225 233.406 184.225ZM287.101 163.894C282.207 163.894 278.239 167.862 278.239 172.757C278.239 177.651 282.207 181.619 287.101 181.619C291.996 181.619 295.964 177.651 295.964 172.757C295.964 167.862 291.996 163.894 287.101 163.894Z" fill="#D7FF1E"/>
<path d="M242.529 193.09C242.529 198.126 238.446 202.209 233.41 202.209C228.373 202.209 224.29 198.126 224.29 193.09C224.29 188.054 228.373 183.971 233.41 183.971C238.446 183.971 242.529 188.054 242.529 193.09Z" fill="#D7FF1E" stroke="black" stroke-width="3"/>
<path d="M300.397 210.286C300.397 215.322 296.314 219.405 291.278 219.405C286.241 219.405 282.159 215.322 282.159 210.286C282.159 205.249 286.241 201.167 291.278 201.167C296.314 201.167 300.397 205.249 300.397 210.286Z" fill="#D7FF1E" stroke="black" stroke-width="3"/>
<path d="M256.604 258.254C256.604 263.291 252.521 267.373 247.485 267.373C242.448 267.373 238.365 263.291 238.365 258.254C238.365 253.218 242.448 249.135 247.485 249.135C252.521 249.135 256.604 253.218 256.604 258.254Z" fill="#D7FF1E" stroke="black" stroke-width="3"/>
<path d="M279.02 305.691C279.02 310.727 274.938 314.81 269.901 314.81C264.865 314.81 260.782 310.727 260.782 305.691C260.782 300.654 264.865 296.571 269.901 296.571C274.938 296.571 279.02 300.654 279.02 305.691Z" fill="#D7FF1E" stroke="black" stroke-width="3"/>
<path d="M251.391 350.004C251.391 355.04 247.308 359.123 242.272 359.123C237.235 359.123 233.152 355.04 233.152 350.004C233.152 344.967 237.235 340.885 242.272 340.885C247.308 340.885 251.391 344.967 251.391 350.004Z" fill="#D7FF1E" stroke="black" stroke-width="3"/>
<path d="M296.224 172.758C296.224 177.794 292.142 181.877 287.105 181.877C282.069 181.877 277.986 177.794 277.986 172.758C277.986 167.721 282.069 163.639 287.105 163.639C292.142 163.639 296.224 167.721 296.224 172.758Z" fill="#D7FF1E" stroke="black" stroke-width="3"/>
</svg>
