<svg width="512" height="512" viewBox="0 0 512 512" fill="none" xmlns="http://www.w3.org/2000/svg">
<path d="M256 0C397.333 0 512 114.667 512 256C512 397.333 397.333 512 256 512C114.667 512 0 397.333 0 256C0 114.667 114.667 0 256 0Z" fill="#70D44B"/>
<path d="M256 104.533C269.511 104.533 281.778 112.178 287.822 124.267L387.733 324.267C396.444 341.867 389.333 363.2 371.733 371.911C366.756 374.4 361.422 375.644 355.911 375.644H156.089C136.533 375.644 120.533 359.644 120.533 340.089C120.533 334.578 121.778 329.067 124.267 324.267L224.178 124.267C230.222 112 242.489 104.356 256 104.533ZM256 80C233.244 80 212.444 92.8 202.311 113.244L102.4 313.244C87.6445 342.933 99.5556 378.844 129.244 393.778C137.6 397.867 146.844 400.178 156.089 400.178H356.089C389.156 400.178 416.178 373.333 416.178 340.267C416.178 331.022 414.044 321.778 409.778 313.422L309.689 113.244C299.556 92.8 278.756 80 256 80Z" fill="white"/>
</svg>
