<svg width="514" height="514" viewBox="0 0 514 514" fill="none" xmlns="http://www.w3.org/2000/svg">
<path d="M1 257C1 398.385 115.615 513 257 513C398.385 513 513 398.385 513 257C513 115.615 398.385 1 257 1C115.615 1 1 115.615 1 257Z" fill="black" stroke="black" stroke-miterlimit="10"/>
<path d="M435.153 148.665C429.102 143.895 421.887 137.378 408.738 135.749C396.404 134.12 383.836 142.382 375.342 147.851C366.847 153.32 350.789 169.378 344.156 174.265C337.524 179.153 320.535 183.691 293.189 200.098C265.844 216.505 158.556 285.393 158.556 285.393L186.484 285.742L61.9746 349.858H74.4255L56.5055 363.473C56.5055 363.473 72.3309 367.662 85.5964 359.284V363.124C85.5964 363.124 233.844 304.709 262.469 319.836L245.015 324.956C246.527 324.956 274.687 326.818 274.687 326.818C275.371 332.649 277.331 338.258 280.428 343.246C283.525 348.234 287.684 352.478 292.607 355.676C309.596 366.847 309.946 373.015 309.946 373.015C309.946 373.015 301.102 376.622 301.102 381.16C301.102 381.16 314.135 377.204 326.236 377.553C333.917 377.844 341.535 379.055 348.927 381.16C348.927 381.16 347.996 376.273 336.244 373.015C324.491 369.756 312.855 356.956 307.153 349.975C303.66 345.53 301.384 340.254 300.548 334.664C299.711 329.074 300.343 323.363 302.382 318.091C306.455 307.502 320.651 301.684 349.975 286.556C384.535 268.636 392.447 255.371 397.335 245.015C402.222 234.658 409.436 214.062 413.509 204.404C418.629 191.953 424.913 185.32 430.149 181.364C435.385 177.407 458.658 168.68 458.658 168.68C458.658 168.68 440.855 153.204 435.153 148.665Z" fill="white"/>
</svg>
