<svg width="512" height="512" viewBox="0 0 512 512" fill="none" xmlns="http://www.w3.org/2000/svg">
<path d="M413.722 87.4895H97.5967V374.809H413.722V87.4895Z" fill="white"/>
<path fill-rule="evenodd" clip-rule="evenodd" d="M511.659 255.66C511.659 396.858 397.122 511.319 255.83 511.319C114.539 511.319 0 396.858 0 255.66C0 114.463 114.539 0 255.83 0C397.122 0 511.659 114.463 511.659 255.66ZM183.335 357.399H133.685C123.253 357.399 118.099 357.399 114.957 355.391C111.563 353.191 109.489 349.549 109.238 345.528C109.049 341.825 111.626 337.301 116.78 328.257L239.37 112.318C244.586 103.149 247.226 98.5637 250.557 96.8681C254.139 95.0468 258.413 95.0468 261.995 96.8681C265.326 98.5637 267.966 103.149 273.182 112.318L298.384 156.282L298.512 156.507C304.146 166.344 307.003 171.332 308.251 176.568C309.633 182.284 309.633 188.313 308.251 194.028C306.994 199.304 304.166 204.329 298.447 214.315L234.053 328.069L233.886 328.36C228.215 338.278 225.341 343.306 221.358 347.098C217.021 351.244 211.805 354.257 206.086 355.956C200.869 357.399 195.025 357.399 183.335 357.399ZM308.716 357.399H379.858C390.353 357.399 395.633 357.399 398.778 355.329C402.17 353.13 404.306 349.423 404.497 345.406C404.678 341.821 402.157 337.474 397.217 328.956C397.047 328.666 396.877 328.37 396.703 328.07L361.067 267.149L360.662 266.463C355.654 258.001 353.127 253.727 349.88 252.076C346.3 250.254 342.086 250.254 338.506 252.076C335.237 253.771 332.598 258.23 327.382 267.212L291.873 328.133L291.751 328.343C286.553 337.31 283.955 341.791 284.143 345.467C284.394 349.488 286.468 353.191 289.862 355.391C292.941 357.399 298.22 357.399 308.716 357.399Z" fill="#E84142"/>
</svg>
