<svg width="512" height="512" viewBox="0 0 512 512" fill="none" xmlns="http://www.w3.org/2000/svg">
<path d="M154.74 123.733L418.133 301.577L352.993 396.8L89.6001 217.556L154.74 123.733Z" fill="url(#paint0_linear_170_188)"/>
<path d="M420.994 301.937C398.48 334.803 322.497 321.942 250.735 270.501C177.565 220.488 138.166 153.328 159.273 120.463C181.787 87.5975 257.77 100.458 329.532 151.899C402.702 200.483 442.1 269.072 420.994 301.937Z" fill="url(#paint1_linear_170_188)"/>
<path d="M352.701 395.922C330.115 428.573 253.888 415.796 181.896 364.69C109.903 313.584 68.9666 248.282 91.5524 214.212C114.138 181.561 190.365 194.337 262.357 245.443C334.35 296.549 373.875 363.271 352.701 395.922Z" fill="url(#paint2_linear_170_188)"/>
<path d="M417.087 300.455V300.455L351.912 396.394V396.394C329.242 428.843 252.732 414.735 180.472 365.355C166.303 355.479 153.552 345.603 140.8 334.316C150.718 332.905 163.47 327.261 176.221 313.153C198.891 289.168 210.226 283.525 220.144 284.936C230.062 284.936 241.397 294.812 259.816 318.796C278.235 342.781 303.738 349.835 319.324 337.137C320.741 335.727 322.158 335.727 323.574 334.316C336.326 324.44 340.577 320.207 364.663 275.06C370.331 263.773 390.167 245.432 417.087 253.897C424.171 272.238 424.171 287.757 417.087 300.455Z" fill="#0E0F23"/>
<path fill-rule="evenodd" clip-rule="evenodd" d="M405.115 296.911C385.404 325.242 316.415 311.076 250.241 264.33C182.66 217.583 143.237 158.087 162.948 129.756C182.66 101.425 251.649 115.591 317.823 162.337C383.996 209.084 423.419 268.579 405.115 296.911ZM343.166 254.414C333.31 268.579 299.519 261.497 265.728 238.832C233.346 216.167 213.634 186.419 223.49 172.253C233.346 158.087 267.136 165.17 300.927 187.835C333.31 210.5 353.021 240.248 343.166 254.414Z" fill="white"/>
<path d="M148.855 151.005C148.855 149.823 147.575 148.641 146.295 149.823C145.015 151.005 143.735 151.005 143.735 152.187C145.015 155.733 146.295 158.098 146.295 160.462C146.295 161.644 147.575 162.826 148.855 161.644C150.135 161.644 151.415 160.462 150.135 159.28C150.135 156.915 150.135 154.551 148.855 151.005Z" fill="white"/>
<path d="M157.775 172.682C157.775 171.257 156.384 169.832 154.992 171.257C153.6 172.682 153.6 172.682 153.6 174.107C168.909 209.729 200.92 248.202 242.673 276.7C244.065 278.125 245.456 276.7 246.848 276.7C248.24 275.275 246.848 273.85 246.848 272.425C203.704 243.927 173.085 206.88 157.775 172.682Z" fill="white"/>
<path d="M326.892 314.027C325.58 314.027 324.267 314.027 324.267 315.307C324.267 316.587 324.267 317.867 325.58 317.867C329.518 319.147 334.769 320.427 338.708 321.707C340.021 321.707 341.333 321.707 341.333 320.427C341.333 319.147 341.333 317.867 340.021 317.867C336.082 316.587 330.831 315.307 326.892 314.027Z" fill="white"/>
<path d="M352.61 318.668C351.238 318.668 349.867 319.948 349.867 321.228C349.867 322.508 351.238 323.788 352.61 323.788C363.581 325.068 375.924 326.348 385.524 325.068C386.895 325.068 388.267 323.788 388.267 322.508C388.267 321.228 386.895 319.948 385.524 319.948C374.552 321.228 363.581 319.948 352.61 318.668Z" fill="white"/>
<defs>
<linearGradient id="paint0_linear_170_188" x1="99.6463" y1="120.155" x2="136.374" y2="300.68" gradientUnits="userSpaceOnUse">
<stop stop-color="#03B8FF"/>
<stop offset="1" stop-color="#FA52A0"/>
</linearGradient>
<linearGradient id="paint1_linear_170_188" x1="139.729" y1="102.699" x2="173.296" y2="287.031" gradientUnits="userSpaceOnUse">
<stop stop-color="#03B8FF"/>
<stop offset="1" stop-color="#FA52A0"/>
</linearGradient>
<linearGradient id="paint2_linear_170_188" x1="50.9473" y1="128.149" x2="84.634" y2="311.341" gradientUnits="userSpaceOnUse">
<stop stop-color="#03B8FF"/>
<stop offset="1" stop-color="#FA52A0"/>
</linearGradient>
</defs>
</svg>
