<svg width="512" height="512" viewBox="0 0 512 512" fill="none" xmlns="http://www.w3.org/2000/svg">
<circle cx="256" cy="256" r="256" fill="black"/>
<path d="M333.407 141.087L279.921 220.462C276.223 225.867 283.335 232.41 288.456 227.858L341.088 182.054C342.511 180.916 344.502 181.77 344.502 183.761V326.863C344.502 328.855 341.942 329.708 340.804 328.286L181.485 137.673C176.365 131.414 168.968 128 160.717 128H155.027C140.233 128 128 140.233 128 155.312V356.736C128 371.814 140.233 384.047 155.312 384.047C164.7 384.047 173.52 379.211 178.64 370.961L232.126 291.586C235.824 286.18 228.712 279.637 223.591 284.189L170.959 329.708C169.537 330.846 167.545 329.993 167.545 328.001V185.184C167.545 183.192 170.106 182.339 171.244 183.761L330.562 374.374C335.683 380.633 343.364 384.047 351.33 384.047H357.02C372.098 384.047 384.332 371.814 384.332 356.736V155.312C384.332 140.233 372.098 128 357.02 128C347.347 128 338.528 132.836 333.407 141.087Z" fill="white"/>
</svg>
