<svg width="514" height="514" viewBox="0 0 514 514" fill="none" xmlns="http://www.w3.org/2000/svg">
<circle cx="257" cy="257" r="256" fill="black" stroke="black" stroke-width="1.2373"/>
<path d="M192.193 332.83C184.928 332.83 178.792 327.641 177.57 320.468L136.216 77.3223C135.547 73.4014 136.446 69.4804 138.753 66.2514C141.059 63.0224 144.473 60.8774 148.37 60.2085C156.443 58.8477 164.123 64.2909 165.507 72.3635L206.862 315.509C207.531 319.43 206.631 323.351 204.325 326.58C202.018 329.809 198.605 331.954 194.707 332.623C193.9 332.761 193.046 332.83 192.193 332.83Z" fill="#CCFF00"/>
<path d="M192.193 332.83C184.928 332.83 178.792 327.641 177.57 320.468L136.216 77.3223C135.547 73.4014 136.446 69.4804 138.753 66.2514C141.059 63.0224 144.473 60.8774 148.37 60.2085C156.443 58.8477 164.123 64.2909 165.507 72.3635L206.862 315.509C207.531 319.43 206.631 323.351 204.325 326.58C202.018 329.809 198.605 331.954 194.707 332.623C193.9 332.761 193.046 332.83 192.193 332.83Z" fill="#CCFF00"/>
<path d="M261.502 220.691C237.86 220.691 215.88 227.772 197.498 239.927L202.503 269.357C218.302 255.587 238.944 247.215 261.502 247.215C311.113 247.215 351.476 287.578 351.476 337.189C351.476 386.801 311.113 427.164 261.502 427.164C211.89 427.164 171.527 386.801 171.527 337.189C171.527 330.57 172.265 324.135 173.626 317.93L165.646 271.087C152.637 289.884 145.003 312.672 145.003 337.212C145.003 401.447 197.267 453.711 261.502 453.711C325.736 453.711 378 401.447 378 337.212C378 272.978 325.759 220.691 261.502 220.691Z" fill="#CCFF00"/>
<path d="M255.136 405.183C263.9 405.183 271.004 398.079 271.004 389.315C271.004 380.551 263.9 373.447 255.136 373.447C246.372 373.447 239.267 380.551 239.267 389.315C239.267 398.079 246.372 405.183 255.136 405.183Z" fill="#1CD8D2"/>
<path d="M304.701 386.709C313.465 386.709 320.57 379.604 320.57 370.84C320.57 362.076 313.465 354.972 304.701 354.972C295.937 354.972 288.833 362.076 288.833 370.84C288.833 379.604 295.937 386.709 304.701 386.709Z" fill="#1CD8D2"/>
<path d="M265.745 352.689C274.509 352.689 281.614 345.584 281.614 336.82C281.614 328.056 274.509 320.952 265.745 320.952C256.982 320.952 249.877 328.056 249.877 336.82C249.877 345.584 256.982 352.689 265.745 352.689Z" fill="#1CD8D2"/>
<path d="M216.48 368.903C225.244 368.903 232.348 361.798 232.348 353.035C232.348 344.271 225.244 337.166 216.48 337.166C207.716 337.166 200.611 344.271 200.611 353.035C200.611 361.798 207.716 368.903 216.48 368.903Z" fill="#1CD8D2"/>
<path d="M314.85 336.428C323.613 336.428 330.718 329.324 330.718 320.56C330.718 311.796 323.613 304.692 314.85 304.692C306.086 304.692 298.981 311.796 298.981 320.56C298.981 329.324 306.086 336.428 314.85 336.428Z" fill="#1CD8D2"/>
<path d="M276.332 300.194C285.096 300.194 292.2 293.089 292.2 284.326C292.2 275.562 285.096 268.457 276.332 268.457C267.568 268.457 260.464 275.562 260.464 284.326C260.464 293.089 267.568 300.194 276.332 300.194Z" fill="#1CD8D2"/>
<path d="M226.605 318.646C235.369 318.646 242.473 311.541 242.473 302.777C242.473 294.013 235.369 286.909 226.605 286.909C217.841 286.909 210.737 294.013 210.737 302.777C210.737 311.541 217.841 318.646 226.605 318.646Z" fill="#1CD8D2"/>
</svg>
