<svg width="512" height="512" viewBox="0 0 512 512" fill="none" xmlns="http://www.w3.org/2000/svg">
<path d="M511.541 255.911C511.541 396.596 397.5 510.637 256.815 510.637C116.135 510.637 2.08875 396.596 2.08875 255.911C2.08875 115.228 116.135 1.18446 256.815 1.18446C397.5 1.18446 511.541 115.228 511.541 255.911Z" fill="#1BA27A"/>
<path d="M376.366 129.633H135.165V187.863H226.65V273.451H284.881V187.863H376.366V129.633Z" fill="white"/>
<path d="M256.318 282.568C180.639 282.568 119.283 270.591 119.283 255.814C119.283 241.04 180.637 229.06 256.318 229.06C331.998 229.06 393.351 241.04 393.351 255.814C393.351 270.591 331.998 282.568 256.318 282.568ZM410.186 260.274C410.186 241.221 341.298 225.777 256.318 225.777C171.342 225.777 102.448 241.221 102.448 260.274C102.448 277.053 155.867 291.032 226.653 294.13V416.995H284.878V294.178C356.209 291.178 410.186 277.14 410.186 260.274Z" fill="white"/>
</svg>
