<svg width="514" height="514" viewBox="0 0 514 514" fill="none" xmlns="http://www.w3.org/2000/svg">
<circle cx="257" cy="257" r="256" fill="black" stroke="black" stroke-width="1.2373"/>
<path fill-rule="evenodd" clip-rule="evenodd" d="M95.9887 135.656C96.0787 135.476 104.984 125.941 115.778 114.608L135.297 93.7391L139.255 97.6069C141.414 99.7658 150.499 108.401 159.404 116.856C163.681 120.96 167.978 125.043 171.509 128.398C175.331 132.029 178.255 134.807 179.283 135.836L182.971 139.434L186.209 137.455C188.008 136.376 192.596 133.857 196.554 131.968C210.226 125.132 223.629 121.084 240 118.745C246.836 117.756 268.964 117.936 276.34 119.015C290.552 121.084 302.786 124.772 315.918 130.799C320.236 132.778 327.972 137.005 331.03 139.074C332.11 139.884 333.279 140.424 333.459 140.334C333.729 140.244 343.803 129.809 355.947 117.126C368.09 104.353 378.254 94.0089 378.614 94.0089C379.154 94.0089 419.632 132.238 419.992 133.138C420.082 133.407 409.737 144.471 397.054 157.694L373.937 181.891L375.646 184.859C379.154 190.796 385.181 203.749 387.16 209.506C400.832 248.814 396.424 291.451 375.286 326.622L372.767 330.759L378.254 335.977C394.805 351.538 421.881 377.534 421.97 377.804C422.06 378.343 382.572 419.631 382.212 419.451C381.852 419.271 345.872 385.09 336.247 375.735L331.84 371.417L327.702 373.936C311.781 383.561 292.351 390.127 272.742 392.376C262.578 393.635 244.408 393.185 234.873 391.476C215.893 388.058 198.713 381.582 184.051 372.227L181.172 370.428L178.114 373.486C176.495 375.195 165.791 386.439 154.367 398.402L133.588 420.081L132.239 418.911C128.731 416.033 91.9409 380.502 92.0309 380.232C92.0611 380.202 92.387 379.856 92.9706 379.236C95.868 376.159 105.117 366.337 116.048 354.956C129.181 341.194 140.065 329.68 140.245 329.32C140.424 328.96 139.615 326.982 137.816 323.923C134.128 317.717 129.81 308.272 127.292 300.896C113.889 261.857 118.297 219.4 139.615 184.14L142.044 180.092L140.694 178.833C140.136 178.344 133.737 172.231 125.313 164.184C122.874 161.853 120.264 159.36 117.577 156.795C105.613 145.461 95.8988 135.926 95.9887 135.656ZM305.665 188.097C293.881 179.822 281.108 174.965 266.806 173.255C232.265 169.118 198.713 187.288 183.242 218.411C179.374 226.326 177.305 231.993 175.776 239.909C174.157 247.915 174.157 263.026 175.776 271.122C180.903 296.578 196.914 317.806 219.582 329.41C250.975 345.421 288.304 340.024 314.12 315.917C344.344 287.583 348.931 241.348 324.914 207.347C320.687 201.32 311.691 192.325 305.665 188.097Z" fill="white"/>
</svg>
