<svg width="512" height="512" viewBox="0 0 512 512" fill="none" xmlns="http://www.w3.org/2000/svg">
<path d="M85.3333 213.333H128V170.667H85.3333V213.333Z" fill="#FED955"/>
<path d="M85.3333 298.667H128V256H85.3333V298.667Z" fill="#FED955"/>
<path d="M85.3333 256H128V213.333H85.3333V256Z" fill="#FED955"/>
<path d="M85.3333 341.333H128V298.667H85.3333V341.333Z" fill="#FED955"/>
<path d="M256 128H298.667V85.3333H256V128Z" fill="#FED955"/>
<path d="M256 384H298.667V426.667H256V384Z" fill="#FED955"/>
<path d="M298.667 128H341.333V85.3333H298.667V128Z" fill="#FED955"/>
<path d="M341.333 128H384V85.3333H341.333V128Z" fill="#9695F8"/>
<path d="M170.667 128H128V85.3333H170.667V128Z" fill="#9695F8"/>
<path d="M426.667 384H384V341.333H426.667V384Z" fill="#9695F8"/>
<path d="M85.3333 384H128V341.333H85.3333V384Z" fill="#9695F8"/>
<path d="M298.667 85.3333H341.333V42.6667H298.667V85.3333Z" fill="#9695F8"/>
<path d="M298.667 42.6667H341.333V0H298.667V42.6667Z" fill="#5552FD"/>
<path d="M298.667 512H341.333V469.333H298.667V512Z" fill="#5552FD"/>
<path d="M298.667 469.333H341.333V426.667H298.667V469.333Z" fill="#9695F8"/>
<path d="M213.333 85.3333H256V42.6667H213.333V85.3333Z" fill="#9695F8"/>
<path d="M213.333 42.6667H256V0H213.333V42.6667Z" fill="#5552FD"/>
<path d="M213.333 512H256V469.333H213.333V512Z" fill="#5552FD"/>
<path d="M213.333 469.333H256V426.667H213.333V469.333Z" fill="#9695F8"/>
<path d="M256 85.3333H298.667V42.6667H256V85.3333Z" fill="#9695F8"/>
<path d="M256 42.6667H298.667V0H256V42.6667Z" fill="#5552FD"/>
<path d="M256 512H298.667V469.333H256V512Z" fill="#5552FD"/>
<path d="M256 469.333H298.667V426.667H256V469.333Z" fill="#9695F8"/>
<path d="M170.667 85.3333H213.333V42.6667H170.667V85.3333Z" fill="#9695F8"/>
<path d="M170.667 42.6667H213.333V0H170.667V42.6667Z" fill="#5552FD"/>
<path d="M170.667 512H213.333V469.333H170.667V512Z" fill="#5552FD"/>
<path d="M170.667 469.333H213.333V426.667H170.667V469.333Z" fill="#9695F8"/>
<path d="M384 170.667H426.667V128H384V170.667Z" fill="#9695F8"/>
<path d="M128 170.667H85.3333V128H128V170.667Z" fill="#9695F8"/>
<path d="M384 426.667H341.333V384H384V426.667Z" fill="#9695F8"/>
<path d="M128 426.667H170.667V384H128V426.667Z" fill="#9695F8"/>
<path d="M426.667 213.333H469.333V170.667H426.667V213.333Z" fill="#9695F8"/>
<path d="M42.6667 213.333H85.3333V170.667H42.6667V213.333Z" fill="#9695F8"/>
<path d="M0 213.333H42.6667V170.667H0V213.333Z" fill="#5552FD"/>
<path d="M42.6667 170.667H85.3333V128H42.6667V170.667Z" fill="#5552FD"/>
<path d="M469.333 170.667H426.667V128H469.333V170.667Z" fill="#5552FD"/>
<path d="M341.333 469.333H384V426.667H341.333V469.333Z" fill="#5552FD"/>
<path d="M42.6667 341.333V384H85.3333V341.333H42.6667Z" fill="#5552FD"/>
<path d="M85.3333 128H128V85.3333H85.3333V128Z" fill="#5552FD"/>
<path d="M426.667 128H384V85.3333H426.667V128Z" fill="#5552FD"/>
<path d="M384 426.667H426.667V384H384V426.667Z" fill="#5552FD"/>
<path d="M85.3333 384V426.667H128V384H85.3333Z" fill="#5552FD"/>
<path d="M128 85.3333H170.667V42.6667H128V85.3333Z" fill="#5552FD"/>
<path d="M384 85.3333H341.333V42.6667L384 42.6667V85.3333Z" fill="#5552FD"/>
<path d="M426.667 384H469.333V341.333H426.667V384Z" fill="#5552FD"/>
<path d="M128 426.667V469.333H170.667V426.667H128Z" fill="#5552FD"/>
<path d="M469.333 213.333H512V170.667H469.333V213.333Z" fill="#5552FD"/>
<path d="M426.667 256H469.333V213.333H426.667V256Z" fill="#9695F8"/>
<path d="M42.6667 256H85.3333V213.333H42.6667V256Z" fill="#9695F8"/>
<path d="M0 256H42.6667V213.333H0V256Z" fill="#5552FD"/>
<path d="M469.333 256H512V213.333H469.333V256Z" fill="#5552FD"/>
<path d="M426.667 298.667H469.333V256H426.667V298.667Z" fill="#9695F8"/>
<path d="M42.6667 298.667H85.3333V256H42.6667V298.667Z" fill="#9695F8"/>
<path d="M0 298.667H42.6667V256H0V298.667Z" fill="#5552FD"/>
<path d="M469.333 298.667H512V256H469.333V298.667Z" fill="#5552FD"/>
<path d="M426.667 341.333H469.333V298.667H426.667V341.333Z" fill="#9695F8"/>
<path d="M42.6667 341.333H85.3333V298.667H42.6667V341.333Z" fill="#9695F8"/>
<path d="M0 341.333H42.6667V298.667H0V341.333Z" fill="#5552FD"/>
<path d="M469.333 341.333H512V298.667H469.333V341.333Z" fill="#5552FD"/>
<path d="M298.667 384H341.333V426.667H298.667V384Z" fill="#FED955"/>
<path d="M256 213.333H298.667V170.667H256V213.333Z" fill="#FED955"/>
<path d="M256 298.667H298.667V256H256V298.667Z" fill="#FED955"/>
<path d="M256 341.333H298.667V298.667H256V341.333Z" fill="#FED955"/>
<path d="M256 170.667H298.667V128H256V170.667Z" fill="#FED955"/>
<path d="M256 341.333H298.667V384H256V341.333Z" fill="#FED955"/>
<path d="M170.667 298.667H213.333V256H170.667V298.667Z" fill="#FED955"/>
<path d="M170.667 256H213.333V213.333H170.667V256Z" fill="#FED955"/>
<path d="M170.667 341.333H213.333V298.667H170.667V341.333Z" fill="#FED955"/>
<path d="M170.667 170.667H213.333V128H170.667V170.667Z" fill="#FED955"/>
<path d="M170.667 341.333H213.333V384H170.667V341.333Z" fill="#FED955"/>
<path d="M298.667 298.667H341.333V256H298.667V298.667Z" fill="#FED955"/>
<path d="M298.667 256H341.333V213.333H298.667V256Z" fill="#FED955"/>
<path d="M298.667 341.333H341.333V298.667H298.667V341.333Z" fill="#FED955"/>
<path d="M298.667 170.667H341.333V128H298.667V170.667Z" fill="#FED955"/>
<path d="M298.667 341.333H341.333V384H298.667V341.333Z" fill="#FED955"/>
<path d="M213.333 128H256V85.3333H213.333V128Z" fill="#FED955"/>
<path d="M213.333 384H256V426.667H213.333V384Z" fill="#FED955"/>
<path d="M170.667 128H213.333V85.3333H170.667V128Z" fill="#FED955"/>
<path d="M170.667 384H213.333V426.667H170.667V384Z" fill="#FED955"/>
<path d="M213.333 213.333H256V170.667H213.333V213.333Z" fill="#FED955"/>
<path d="M213.333 298.667H256V256H213.333V298.667Z" fill="#FED955"/>
<path d="M170.667 213.333H213.333V170.667H170.667V213.333Z" fill="#5552FD"/>
<path d="M256 256H298.667V213.333H256V256Z" fill="#5552FD"/>
<path d="M341.333 213.333H384V170.667H341.333V213.333Z" fill="#5552FD"/>
<path d="M341.333 298.667H384V256H341.333V298.667Z" fill="#5552FD"/>
<path d="M341.333 256H384V213.333H341.333V256Z" fill="#5552FD"/>
<path d="M341.333 341.333H384V298.667H341.333V341.333Z" fill="#5552FD"/>
<path d="M341.333 170.667H384V128H341.333V170.667Z" fill="#5552FD"/>
<path d="M341.333 341.333H384V384H341.333V341.333Z" fill="#5552FD"/>
<path d="M128 213.333H170.667V170.667H128V213.333Z" fill="#5552FD"/>
<path d="M128 298.667H170.667V256H128V298.667Z" fill="#5552FD"/>
<path d="M128 256H170.667V213.333H128V256Z" fill="#5552FD"/>
<path d="M128 341.333H170.667V298.667H128V341.333Z" fill="#5552FD"/>
<path d="M128 170.667H170.667V128H128V170.667Z" fill="#5552FD"/>
<path d="M128 341.333H170.667V384H128V341.333Z" fill="#5552FD"/>
<path d="M298.667 213.333H341.333V170.667H298.667V213.333Z" fill="#5552FD"/>
<path d="M213.333 256H256V213.333H213.333V256Z" fill="#5552FD"/>
<path d="M213.333 341.333H256V298.667H213.333V341.333Z" fill="#FED955"/>
<path d="M213.333 170.667H256V128H213.333V170.667Z" fill="#FED955"/>
<path d="M213.333 341.333H256V384H213.333V341.333Z" fill="#FED955"/>
<path d="M384 213.333H426.667V170.667H384V213.333Z" fill="#FED955"/>
<path d="M384 298.667H426.667V256H384V298.667Z" fill="#FED955"/>
<path d="M384 256H426.667V213.333H384V256Z" fill="#FED955"/>
<path d="M384 341.333H426.667V298.667H384V341.333Z" fill="#FED955"/>
</svg>
