<svg width="512" height="512" viewBox="0 0 512 512" fill="none" xmlns="http://www.w3.org/2000/svg">
<g clip-path="url(#clip0_170_208)">
<path d="M0.996094 256.996C0.996094 398.381 115.611 512.996 256.996 512.996C398.381 512.996 512.996 398.381 512.996 256.996C512.996 115.611 398.381 0.996094 256.996 0.996094C115.611 0.996094 0.996094 115.611 0.996094 256.996Z" fill="#8247E5"/>
<path d="M348.495 195.864C341.886 192.088 333.39 192.088 325.837 195.864L272.968 227.019L237.092 246.845L185.167 278C178.558 281.777 170.062 281.777 162.509 278L121.913 253.454C115.304 249.677 110.584 242.125 110.584 233.628V186.423C110.584 178.87 114.36 171.318 121.913 166.597L162.509 142.995C169.117 139.219 177.614 139.219 185.167 142.995L225.763 167.541C232.372 171.318 237.092 178.87 237.092 187.367V218.522L272.968 197.752V165.653C272.968 158.1 269.191 150.548 261.639 145.827L186.111 101.455C179.502 97.6785 171.006 97.6785 163.453 101.455L86.0372 146.771C78.4845 150.548 74.7081 158.1 74.7081 165.653V254.398C74.7081 261.951 78.4845 269.503 86.0372 274.224L162.509 318.596C169.117 322.373 177.614 322.373 185.167 318.596L237.092 288.385L272.968 267.615L324.893 237.404C331.501 233.628 339.998 233.628 347.551 237.404L388.147 261.007C394.756 264.783 399.476 272.336 399.476 280.832V328.037C399.476 335.59 395.7 343.143 388.147 347.863L348.495 371.465C341.886 375.242 333.39 375.242 325.837 371.465L285.241 347.863C278.632 344.087 273.912 336.534 273.912 328.037V297.826L238.036 318.596V349.751C238.036 357.304 241.813 364.857 249.365 369.577L325.837 413.95C332.445 417.726 340.942 417.726 348.495 413.95L424.967 369.577C431.575 365.801 436.296 358.248 436.296 349.751V260.062C436.296 252.51 432.519 244.957 424.967 240.236L348.495 195.864Z" fill="white"/>
</g>
<defs>
<clipPath id="clip0_170_208">
<rect width="512" height="512" fill="white"/>
</clipPath>
</defs>
</svg>
