<svg width="512" height="512" viewBox="0 0 512 512" fill="none" xmlns="http://www.w3.org/2000/svg">
<path d="M512 256C512 114.615 397.385 0 256 0C114.615 0 0 114.615 0 256C0 397.385 114.615 512 256 512C397.385 512 512 397.385 512 256Z" fill="black"/>
<path d="M199.933 143.631C194.295 136.095 184.25 132.92 175.068 135.772C165.887 138.624 159.663 146.851 159.663 156.137V198.936H107.789V241.734H159.663V270.267H107.789V313.065H159.663V377.263H204.126V222.461L312.067 366.707C317.705 374.242 327.75 377.417 336.932 374.564C346.113 371.713 352.337 363.486 352.337 354.199V313.065H404.211V270.267H352.337V241.734H404.211V198.936H352.337V134.738H307.874V287.876L199.933 143.631Z" fill="white"/>
</svg>
