<svg width="512" height="512" viewBox="0 0 512 512" fill="none" xmlns="http://www.w3.org/2000/svg">
<path d="M256 512C397.658 512 512 397.219 512 256C512 114.781 397.658 0 256 0C114.342 0 0 114.781 0 256C0 397.219 114.342 512 256 512Z" fill="#000C74"/>
<path d="M329.687 294.045C298.561 294.045 280.139 280.504 269.34 272.121C268.705 271.476 267.434 270.831 266.799 270.186C265.528 268.897 263.623 267.607 262.352 266.317C252.824 258.579 238.213 246.972 205.181 246.972C167.702 246.972 139.752 271.476 139.752 272.121C139.117 272.766 137.846 273.411 137.211 274.055C135.94 274.7 135.305 274.7 134.035 274.7C132.764 274.7 132.129 274.7 130.859 274.055C130.223 273.411 128.953 272.766 128.318 272.121C127.682 271.476 127.047 270.186 127.047 269.542C126.412 268.252 126.412 267.607 126.412 266.317C126.412 265.028 127.047 264.383 127.047 263.093C127.682 262.448 128.318 261.159 128.953 260.514C130.223 259.224 161.35 231.496 205.181 231.496C243.295 231.496 261.082 245.683 271.881 254.71C273.151 256 274.422 257.29 275.692 257.934C276.327 258.579 277.598 259.224 278.233 259.869C288.397 266.962 303.007 278.569 329.052 278.569C355.732 278.569 370.978 267.607 379.871 260.514L381.777 259.224C383.682 257.934 385.588 257.29 387.494 257.934C389.399 258.579 391.305 259.224 392.576 261.159C393.846 263.093 394.481 265.028 393.846 266.962C393.846 268.897 392.576 270.831 390.67 272.121L389.399 272.766C379.871 279.859 361.449 294.045 329.687 294.045Z" fill="#53CBC8"/>
<path d="M202.005 214.086C241.39 214.086 264.258 236.655 274.422 243.748C283.95 250.841 297.926 261.159 329.052 261.159C356.367 261.159 372.883 251.486 383.047 243.748C383.682 243.748 383.682 243.103 383.682 242.458C384.953 234.076 386.223 226.338 386.223 217.955C386.223 147.023 329.687 88.3426 259.811 87.6978C241.39 87.6978 222.332 91.5668 205.816 99.3048C188.665 107.043 173.419 118.65 161.35 132.836C149.28 147.023 140.387 164.433 135.305 182.489C130.223 200.544 128.953 219.889 132.129 238.589C132.129 239.234 132.129 239.234 132.764 239.234L133.4 239.879C134.035 239.879 134.035 239.879 134.67 239.879C135.305 239.879 135.305 239.879 135.305 239.234C146.739 230.207 172.149 214.086 202.005 214.086Z" fill="#F2B705"/>
<path d="M367.166 346.277C365.896 346.277 365.261 346.277 363.99 345.632C363.355 344.987 362.084 344.343 361.449 343.698C360.814 343.053 360.179 341.763 359.543 341.118C358.908 340.474 358.908 339.184 358.908 337.894V309.521C358.908 307.587 359.543 305.652 361.449 303.718C362.72 302.428 364.625 301.139 367.166 301.139C369.072 301.139 370.978 301.783 372.883 303.718C374.154 305.008 375.424 306.942 375.424 309.521V337.894C375.424 339.184 375.424 339.829 374.789 341.118C374.154 342.408 373.519 343.053 372.883 343.698C372.248 344.343 370.978 344.987 370.342 345.632C369.707 345.632 368.437 346.277 367.166 346.277Z" fill="#53CBC8"/>
<path d="M336.04 391.416C334.134 391.416 332.228 390.771 330.323 388.836C329.052 387.547 327.782 385.612 327.782 383.033V315.97C327.782 314.035 328.417 312.101 330.323 310.811C331.593 309.521 333.499 308.877 336.04 308.877C337.945 308.877 339.851 309.521 341.757 310.811C343.027 312.101 344.298 314.035 344.298 315.97V383.678C344.298 384.967 344.298 385.612 343.663 386.902C343.027 387.547 342.392 388.836 341.757 389.481C341.122 390.126 339.851 390.771 339.216 391.416C337.945 391.416 337.31 391.416 336.04 391.416Z" fill="#53CBC8"/>
<path d="M304.913 399.798C303.643 399.798 303.007 399.798 301.737 399.154C301.102 398.509 299.831 397.864 299.196 397.219C298.561 396.574 297.925 395.285 297.29 394.64C296.655 393.995 296.655 392.705 296.655 391.416V314.035C296.655 312.101 297.29 310.166 299.196 308.232C300.466 306.942 302.372 305.652 304.913 305.652C306.819 305.652 308.724 306.297 310.63 308.232C311.901 309.521 313.171 311.456 313.171 314.035V391.416C313.171 392.705 313.171 393.35 312.536 394.64C311.901 395.285 311.265 396.574 310.63 397.219C309.995 397.864 308.724 398.509 308.089 399.154C306.819 399.154 305.548 399.798 304.913 399.798Z" fill="#53CBC8"/>
<path d="M273.151 324.998C271.246 324.998 269.34 324.353 267.434 322.418C266.164 321.129 264.893 319.194 264.893 316.615V301.139C264.893 299.204 265.529 297.27 267.434 295.98C268.705 294.69 270.61 294.045 273.151 294.045C275.057 294.045 276.963 294.69 278.868 295.98C280.139 297.27 281.409 299.204 281.409 301.139V317.26C281.409 318.549 281.409 319.194 280.774 320.484C280.139 321.129 279.504 322.418 278.868 323.063C278.233 323.708 276.963 324.353 276.328 324.998C275.692 324.998 274.422 324.998 273.151 324.998Z" fill="#53CBC8"/>
<path d="M242.025 346.277C240.119 346.277 238.213 345.632 236.308 343.698C235.037 342.408 233.767 340.474 233.767 337.894V282.438C233.767 280.504 234.402 278.569 236.308 276.635C238.213 274.7 239.484 274.055 242.025 274.055C243.93 274.055 245.836 274.7 247.742 276.635C249.012 277.924 250.283 279.859 250.283 282.438V337.894C250.283 339.829 249.648 341.763 247.742 343.698C246.471 344.987 243.93 346.277 242.025 346.277Z" fill="#53CBC8"/>
<path d="M210.898 430.751C209.628 430.751 208.993 430.751 207.722 430.106C206.452 429.461 205.816 428.816 205.181 428.171C204.546 427.526 203.911 426.237 203.275 425.592C202.64 424.302 202.64 423.657 202.64 422.368V270.831C202.64 268.897 203.275 266.962 205.181 265.673C206.452 264.383 208.357 263.738 210.898 263.738C212.804 263.738 214.71 264.383 216.615 265.673C217.886 266.962 219.156 268.897 219.156 270.831V423.013C219.156 424.947 218.521 426.882 216.615 428.816C214.71 429.461 212.804 430.751 210.898 430.751Z" fill="#53CBC8"/>
<path d="M179.772 356.594C177.866 356.594 175.96 355.95 174.055 354.015C172.784 352.725 171.514 350.791 171.514 348.212V272.121C171.514 270.186 172.149 268.252 174.055 266.317C175.96 264.383 177.231 263.738 179.772 263.738C181.677 263.738 183.583 264.383 185.489 266.317C186.759 267.607 188.03 269.542 188.03 272.121V348.212C188.03 349.501 188.03 350.146 187.395 351.436C186.759 352.081 186.124 353.37 185.489 354.015C184.854 354.66 183.583 355.305 182.948 355.95C181.677 356.594 180.407 356.594 179.772 356.594Z" fill="#53CBC8"/>
<path d="M148.01 356.594C146.104 356.594 144.198 355.95 142.293 354.015C141.022 352.725 139.752 350.791 139.752 348.212V290.821C139.752 288.887 140.387 286.952 142.293 285.662C143.563 284.373 145.469 283.728 148.01 283.728C150.551 283.728 151.821 284.373 153.727 285.662C154.997 286.952 156.268 288.887 156.268 290.821V348.212C156.268 349.501 156.268 350.146 155.633 351.436C154.997 352.081 154.362 353.37 153.727 354.015C153.092 354.66 151.821 355.305 151.186 355.95C149.916 356.594 149.28 356.594 148.01 356.594Z" fill="#53CBC8"/>
</svg>
