<svg width="512" height="512" viewBox="0 0 512 512" fill="none" xmlns="http://www.w3.org/2000/svg">
<path d="M256 0C397.398 0 512 114.625 512 256C512 397.398 397.398 512 256 512C114.625 512 0 397.386 0 256C0 114.625 114.625 0 256 0Z" fill="#F5AC37"/>
<path d="M265.429 274.077H362.704C364.778 274.077 365.757 274.077 365.907 271.358C366.702 261.463 366.702 251.509 365.907 241.602C365.907 239.678 364.951 238.883 362.866 238.883H169.27C166.874 238.883 166.229 239.678 166.229 241.924V270.402C166.229 274.077 166.229 274.077 170.065 274.077H265.429V274.077ZM355.044 205.602C355.32 204.876 355.32 204.081 355.044 203.367C353.419 199.83 351.495 196.455 349.26 193.287C345.897 187.872 341.934 182.884 337.418 178.403C335.287 175.695 332.821 173.265 330.056 171.202C316.209 159.417 299.747 151.077 282.052 146.883C273.124 144.879 264 143.923 254.853 144.003H168.936C166.54 144.003 166.217 144.96 166.217 147.045V203.839C166.217 206.235 166.217 206.88 169.259 206.88H353.892C353.892 206.88 355.493 206.558 355.815 205.602H355.032H355.044ZM355.044 307.359C352.325 307.059 349.583 307.059 346.864 307.359H169.431C167.035 307.359 166.229 307.359 166.229 310.561V366.088C166.229 368.646 166.229 369.291 169.431 369.291H251.351C255.268 369.59 259.185 369.314 263.021 368.496C274.91 367.643 286.603 365.063 297.754 360.812C301.809 359.407 305.726 357.575 309.424 355.375H310.541C329.745 345.387 345.344 329.696 355.182 310.435C355.182 310.435 356.299 308.015 355.044 307.382V307.359ZM134.076 398.08V397.123V359.844V347.207V309.605C134.076 307.52 134.076 307.209 131.519 307.209H96.7971C94.8733 307.209 94.0784 307.209 94.0784 304.651V274.25H131.196C133.27 274.25 134.076 274.25 134.076 271.531V241.452C134.076 239.528 134.076 239.056 131.519 239.056H96.7971C94.8733 239.056 94.0784 239.056 94.0784 236.498V208.343C94.0784 206.581 94.0784 206.108 96.6358 206.108H131.035C133.431 206.108 134.076 206.108 134.076 203.067V116.828C134.076 114.27 134.076 113.625 137.279 113.625H257.272C265.982 113.971 274.633 114.927 283.193 116.505C300.83 119.765 317.776 126.067 333.271 135.064C343.546 141.112 353.004 148.416 361.426 156.825C367.762 163.403 373.476 170.523 378.545 178.103C383.579 185.787 387.761 194.001 391.044 202.583C391.447 204.818 393.59 206.327 395.825 205.947H424.464C428.139 205.947 428.139 205.947 428.3 209.472V235.715C428.3 238.273 427.344 238.918 424.775 238.918H402.691C400.456 238.918 399.811 238.918 399.972 241.798C400.848 251.544 400.848 261.324 399.972 271.07C399.972 273.789 399.972 274.112 403.025 274.112H428.288C429.406 275.552 428.288 276.992 428.288 278.443C428.45 280.298 428.45 282.176 428.288 284.03V303.396C428.288 306.114 427.494 306.921 425.086 306.921H394.846C392.737 306.518 390.687 307.866 390.203 309.962C383.003 328.682 371.483 345.467 356.599 358.923C351.161 363.819 345.447 368.427 339.48 372.678C333.075 376.364 326.842 380.2 320.276 383.242C308.191 388.679 295.519 392.688 282.513 395.234C270.163 397.446 257.641 398.448 245.073 398.275H134.03V398.114L134.076 398.08Z" fill="#FEFEFD"/>
</svg>
